<svg xmlns="http://www.w3.org/2000/svg" viewBox="0 0 1240 792" width="1240" height="792" role="img" aria-label="superpowers-graph — the spine"><rect width="1240" height="792" fill="#0d1520"/><rect x="9" y="9" width="1222" height="774" rx="12" fill="#111c27" stroke="#1e2c3a"/><defs><marker id="a" viewBox="0 0 10 10" refX="8.5" refY="5" markerWidth="6.5" markerHeight="6.5" orient="auto-start-reverse"><path d="M 0 1.2 L 8.5 5 L 0 8.8 z" fill="#46586b"/></marker></defs><text x="30" y="42" fill="#e6edf3" font-family="ui-monospace, SFMono-Regular, Menlo, Consolas, monospace" font-size="15" font-weight="700" letter-spacing="0.5">superpowers-graph — the spine</text><text x="30" y="61" fill="#8b9cb0" font-family="ui-monospace, SFMono-Regular, Menlo, Consolas, monospace" font-size="10.5">every node a run passes through, and the two shapes execution can take</text><rect x="28" y="106" width="1184" height="172" rx="10" fill="#2dd4bf" opacity="0.045"/><rect x="28" y="106" width="1184" height="172" rx="10" fill="none" stroke="#2dd4bf" stroke-width="1.1" stroke-dasharray="7 6" opacity="0.5"/><rect x="42" y="98" width="370" height="16" rx="3" fill="#111c27"/><text x="51" y="110" fill="#2dd4bf" font-family="ui-monospace, SFMono-Regular, Menlo, Consolas, monospace" font-size="9.5" letter-spacing="1.3" opacity="0.95">SETUP — NOTHING IMPLEMENTS UNTIL THE DESIGN IS APPROVED</text><rect x="28" y="322" width="1184" height="194" rx="10" fill="#f59e0b" opacity="0.045"/><rect x="28" y="322" width="1184" height="194" rx="10" fill="none" stroke="#f59e0b" stroke-width="1.1" stroke-dasharray="7 6" opacity="0.5"/><rect x="42" y="314" width="223" height="16" rx="3" fill="#111c27"/><text x="51" y="326" fill="#f59e0b" font-family="ui-monospace, SFMono-Regular, Menlo, Consolas, monospace" font-size="9.5" letter-spacing="1.3" opacity="0.95">EXECUTION — TWO SHAPES, ONE TAIL</text><rect x="28" y="540" width="1184" height="170" rx="10" fill="#f87171" opacity="0.045"/><rect x="28" y="540" width="1184" height="170" rx="10" fill="none" stroke="#f87171" stroke-width="1.1" stroke-dasharray="7 6" opacity="0.5"/><rect x="42" y="532" width="280" height="16" rx="3" fill="#111c27"/><text x="51" y="544" fill="#f87171" font-family="ui-monospace, SFMono-Regular, Menlo, Consolas, monospace" font-size="9.5" letter-spacing="1.3" opacity="0.95">FINISH — THE IRREVERSIBLE NODES COME LAST</text><path d="M 134 146 L 177 146" fill="none" stroke="#46586b" stroke-width="1.5" stroke-linejoin="round" marker-end="url(#a)"/><path d="M 265 146 L 308 146" fill="none" stroke="#46586b" stroke-width="1.5" stroke-linejoin="round" marker-end="url(#a)"/><path d="M 428 146 L 471 146" fill="none" stroke="#46586b" stroke-width="1.5" stroke-linejoin="round" marker-end="url(#a)"/><path d="M 543 146 L 586 146" fill="none" stroke="#46586b" stroke-width="1.5" stroke-linejoin="round" marker-end="url(#a)"/><path d="M 658 146 L 701 146" fill="none" stroke="#46586b" stroke-width="1.5" stroke-linejoin="round" marker-end="url(#a)"/><path d="M 344 166 L 344 232 L 386 232" fill="none" stroke="#46586b" stroke-width="1.5" stroke-linejoin="round" marker-end="url(#a)"/><rect x="344" y="193" width="94" height="15" rx="3" fill="#111c27" stroke="#1e2c3a" stroke-width="0.8"/><text x="392" y="204" fill="#8b9cb0" font-family="ui-monospace, SFMono-Regular, Menlo, Consolas, monospace" font-size="9.5" text-anchor="middle">multi-subsystem</text><path d="M 498 220 L 509 220 L 509 167" fill="none" stroke="#46586b" stroke-width="1.5" stroke-linejoin="round" marker-end="url(#a)"/><rect x="530" y="203" width="138" height="15" rx="3" fill="#111c27" stroke="#1e2c3a" stroke-width="0.8"/><text x="599" y="214" fill="#8b9cb0" font-family="ui-monospace, SFMono-Regular, Menlo, Consolas, monospace" font-size="9.5" text-anchor="middle">sub-project chosen · ↻2</text><path d="M 778 172 L 778 302 L 112 302 L 112 343" fill="none" stroke="#46586b" stroke-width="1.5" stroke-linejoin="round" marker-end="url(#a)"/><rect x="213" y="287" width="94" height="15" rx="3" fill="#111c27" stroke="#1e2c3a" stroke-width="0.8"/><text x="260" y="298" fill="#8b9cb0" font-family="ui-monospace, SFMono-Regular, Menlo, Consolas, monospace" font-size="9.5" text-anchor="middle">subagent-driven</text><path d="M 851 146 L 1168 146 L 1168 424 L 112 424 L 112 433" fill="none" stroke="#46586b" stroke-width="1.5" stroke-linejoin="round" marker-end="url(#a)"/><rect x="1146" y="291" width="45" height="15" rx="3" fill="#111c27" stroke="#1e2c3a" stroke-width="0.8"/><text x="1168" y="302" fill="#8b9cb0" font-family="ui-monospace, SFMono-Regular, Menlo, Consolas, monospace" font-size="9.5" text-anchor="middle">inline</text><path d="M 183 372 L 278 372" fill="none" stroke="#46586b" stroke-width="1.5" stroke-linejoin="round" marker-end="url(#a)"/><path d="M 534 372 L 629 372" fill="none" stroke="#46586b" stroke-width="1.5" stroke-linejoin="round" marker-end="url(#a)"/><rect x="536" y="351" width="94" height="15" rx="3" fill="#111c27" stroke="#1e2c3a" stroke-width="0.8"/><text x="583" y="362" fill="#8b9cb0" font-family="ui-monospace, SFMono-Regular, Menlo, Consolas, monospace" font-size="9.5" text-anchor="middle">no task remains</text><path d="M 766 372 L 861 372" fill="none" stroke="#46586b" stroke-width="1.5" stroke-linejoin="round" marker-end="url(#a)"/><rect x="787" y="351" width="56" height="15" rx="3" fill="#111c27" stroke="#1e2c3a" stroke-width="0.8"/><text x="815" y="362" fill="#8b9cb0" font-family="ui-monospace, SFMono-Regular, Menlo, Consolas, monospace" font-size="9.5" text-anchor="middle">findings</text><path d="M 175 462 L 699 462 L 699 394" fill="none" stroke="#46586b" stroke-width="1.5" stroke-linejoin="round" marker-end="url(#a)"/><rect x="244" y="439" width="111" height="15" rx="3" fill="#111c27" stroke="#1e2c3a" stroke-width="0.8"/><text x="300" y="450" fill="#8b9cb0" font-family="ui-monospace, SFMono-Regular, Menlo, Consolas, monospace" font-size="9.5" text-anchor="middle">all tasks verified</text><path d="M 745 394 L 745 522 L 204 522 L 204 563" fill="none" stroke="#46586b" stroke-width="1.5" stroke-linejoin="round" marker-end="url(#a)"/><rect x="480" y="506" width="40" height="15" rx="3" fill="#111c27" stroke="#1e2c3a" stroke-width="0.8"/><text x="500" y="517" fill="#8b9cb0" font-family="ui-monospace, SFMono-Regular, Menlo, Consolas, monospace" font-size="9.5" text-anchor="middle">clean</text><path d="M 918 394 L 918 534 L 300 534 L 300 563" fill="none" stroke="#46586b" stroke-width="1.5" stroke-linejoin="round" marker-end="url(#a)"/><rect x="544" y="518" width="111" height="15" rx="3" fill="#111c27" stroke="#1e2c3a" stroke-width="0.8"/><text x="600" y="529" fill="#8b9cb0" font-family="ui-monospace, SFMono-Regular, Menlo, Consolas, monospace" font-size="9.5" text-anchor="middle">addressed / parked</text><path d="M 112 488 L 112 502 L 60 502 L 60 592 L 90 592" fill="none" stroke="#46586b" stroke-width="1.5" stroke-linejoin="round" marker-end="url(#a)"/><rect x="180" y="487" width="177" height="15" rx="3" fill="#111c27" stroke="#1e2c3a" stroke-width="0.8"/><text x="268" y="498" fill="#8b9cb0" font-family="ui-monospace, SFMono-Regular, Menlo, Consolas, monospace" font-size="9.5" text-anchor="middle">no dispatch · edge 95 [ledger]</text><path d="M 315 592 L 424 592" fill="none" stroke="#46586b" stroke-width="1.5" stroke-linejoin="round" marker-end="url(#a)"/><rect x="335" y="571" width="72" height="15" rx="3" fill="#111c27" stroke="#1e2c3a" stroke-width="0.8"/><text x="371" y="582" fill="#8b9cb0" font-family="ui-monospace, SFMono-Regular, Menlo, Consolas, monospace" font-size="9.5" text-anchor="middle">suite green</text><path d="M 537 592 L 700 592 L 700 540 L 825 540" fill="none" stroke="#46586b" stroke-width="1.5" stroke-linejoin="round" marker-end="url(#a)"/><rect x="760" y="517" width="40" height="15" rx="3" fill="#111c27" stroke="#1e2c3a" stroke-width="0.8"/><text x="779" y="528" fill="#8b9cb0" font-family="ui-monospace, SFMono-Regular, Menlo, Consolas, monospace" font-size="9.5" text-anchor="middle">merge</text><path d="M 537 592 L 700 592 L 700 600 L 816 600" fill="none" stroke="#46586b" stroke-width="1.5" stroke-linejoin="round" marker-end="url(#a)"/><rect x="744" y="577" width="62" height="15" rx="3" fill="#111c27" stroke="#1e2c3a" stroke-width="0.8"/><text x="775" y="588" fill="#8b9cb0" font-family="ui-monospace, SFMono-Regular, Menlo, Consolas, monospace" font-size="9.5" text-anchor="middle">push + PR</text><path d="M 537 592 L 700 592 L 700 660 L 795 660" fill="none" stroke="#46586b" stroke-width="1.5" stroke-linejoin="round" marker-end="url(#a)"/><rect x="734" y="637" width="62" height="15" rx="3" fill="#111c27" stroke="#1e2c3a" stroke-width="0.8"/><text x="765" y="648" fill="#8b9cb0" font-family="ui-monospace, SFMono-Regular, Menlo, Consolas, monospace" font-size="9.5" text-anchor="middle">`discard`</text><path d="M 904 540 L 1024 540 L 1024 600 L 1083 600" fill="none" stroke="#46586b" stroke-width="1.5" stroke-linejoin="round" marker-end="url(#a)"/><path d="M 913 600 L 1024 600 L 1024 600 L 1083 600" fill="none" stroke="#46586b" stroke-width="1.5" stroke-linejoin="round" marker-end="url(#a)"/><path d="M 934 660 L 1024 660 L 1024 600 L 1083 600" fill="none" stroke="#46586b" stroke-width="1.5" stroke-linejoin="round" marker-end="url(#a)"/><rect x="44" y="129" width="87" height="34" rx="6" fill="#0e2a2c" stroke="#2dd4bf" stroke-width="1.7"/><text x="88" y="150" fill="#c9fbf5" font-family="ui-monospace, SFMono-Regular, Menlo, Consolas, monospace" font-size="13" font-weight="700" text-anchor="middle">[start]</text><rect x="183" y="129" width="79" height="34" rx="6" fill="#0e2a2c" stroke="#2dd4bf" stroke-width="1.7"/><text x="222" y="150" fill="#c9fbf5" font-family="ui-monospace, SFMono-Regular, Menlo, Consolas, monospace" font-size="13" font-weight="700" text-anchor="middle">INTAKE</text><rect x="314" y="129" width="112" height="34" rx="6" fill="#0e2a2c" stroke="#2dd4bf" stroke-width="1.7"/><text x="370" y="150" fill="#c9fbf5" font-family="ui-monospace, SFMono-Regular, Menlo, Consolas, monospace" font-size="13" font-weight="700" text-anchor="middle">BRAINSTORM</text><rect x="477" y="129" width="63" height="34" rx="6" fill="#0e2a2c" stroke="#2dd4bf" stroke-width="1.7"/><text x="509" y="150" fill="#c9fbf5" font-family="ui-monospace, SFMono-Regular, Menlo, Consolas, monospace" font-size="13" font-weight="700" text-anchor="middle">SPEC</text><rect x="592" y="129" width="63" height="34" rx="6" fill="#0e2a2c" stroke="#2dd4bf" stroke-width="1.7"/><text x="623" y="150" fill="#c9fbf5" font-family="ui-monospace, SFMono-Regular, Menlo, Consolas, monospace" font-size="13" font-weight="700" text-anchor="middle">PLAN</text><rect x="707" y="123" width="142" height="46" rx="6" fill="#0e2a2c" stroke="#2dd4bf" stroke-width="1.7"/><text x="778" y="144" fill="#c9fbf5" font-family="ui-monospace, SFMono-Regular, Menlo, Consolas, monospace" font-size="13" font-weight="700" text-anchor="middle">WORKSPACE</text><text x="778" y="161" fill="#8b9cb0" font-family="ui-monospace, SFMono-Regular, Menlo, Consolas, monospace" font-size="9.5" text-anchor="middle">worktree · baseline</text><rect x="392" y="215" width="103" height="34" rx="6" fill="#0e2a2c" stroke="#2dd4bf" stroke-width="1.7"/><text x="444" y="236" fill="#c9fbf5" font-family="ui-monospace, SFMono-Regular, Menlo, Consolas, monospace" font-size="13" font-weight="700" text-anchor="middle">DECOMPOSE</text><rect x="44" y="349" width="136" height="46" rx="6" fill="#0e2a2c" stroke="#2dd4bf" stroke-width="1.7"/><text x="112" y="370" fill="#c9fbf5" font-family="ui-monospace, SFMono-Regular, Menlo, Consolas, monospace" font-size="13" font-weight="700" text-anchor="middle">SDD_SETUP</text><text x="112" y="387" fill="#8b9cb0" font-family="ui-monospace, SFMono-Regular, Menlo, Consolas, monospace" font-size="9.5" text-anchor="middle">ledger · conflicts</text><rect x="284" y="349" width="247" height="46" rx="6" fill="#2a2010" stroke="#f59e0b" stroke-width="1.7"/><text x="407" y="370" fill="#fde3b0" font-family="ui-monospace, SFMono-Regular, Menlo, Consolas, monospace" font-size="13" font-weight="700" text-anchor="middle">task loop</text><text x="407" y="387" fill="#8b9cb0" font-family="ui-monospace, SFMono-Regular, Menlo, Consolas, monospace" font-size="9.5" text-anchor="middle">IMPLEMENT → TASK_REVIEW → TASK_CLOSE</text><rect x="635" y="355" width="128" height="34" rx="6" fill="#0e2a2c" stroke="#2dd4bf" stroke-width="1.7"/><text x="699" y="376" fill="#c9fbf5" font-family="ui-monospace, SFMono-Regular, Menlo, Consolas, monospace" font-size="13" font-weight="700" text-anchor="middle">FINAL_REVIEW</text><rect x="867" y="355" width="103" height="34" rx="6" fill="#0e2a2c" stroke="#2dd4bf" stroke-width="1.7"/><text x="918" y="376" fill="#c9fbf5" font-family="ui-monospace, SFMono-Regular, Menlo, Consolas, monospace" font-size="13" font-weight="700" text-anchor="middle">FINAL_FIX</text><rect x="52" y="439" width="120" height="46" rx="6" fill="#0e2a2c" stroke="#2dd4bf" stroke-width="1.7"/><text x="112" y="460" fill="#c9fbf5" font-family="ui-monospace, SFMono-Regular, Menlo, Consolas, monospace" font-size="13" font-weight="700" text-anchor="middle">INLINE_EXEC</text><text x="112" y="477" fill="#8b9cb0" font-family="ui-monospace, SFMono-Regular, Menlo, Consolas, monospace" font-size="9.5" text-anchor="middle">inline mode</text><rect x="96" y="569" width="216" height="46" rx="6" fill="#0e2a2c" stroke="#2dd4bf" stroke-width="1.7"/><text x="204" y="590" fill="#c9fbf5" font-family="ui-monospace, SFMono-Regular, Menlo, Consolas, monospace" font-size="13" font-weight="700" text-anchor="middle">FINISH_VERIFY</text><text x="204" y="607" fill="#8b9cb0" font-family="ui-monospace, SFMono-Regular, Menlo, Consolas, monospace" font-size="9.5" text-anchor="middle">full suite, fresh, on this tree</text><rect x="430" y="569" width="103" height="46" rx="6" fill="#0e2a2c" stroke="#2dd4bf" stroke-width="1.7"/><text x="482" y="590" fill="#c9fbf5" font-family="ui-monospace, SFMono-Regular, Menlo, Consolas, monospace" font-size="13" font-weight="700" text-anchor="middle">INTEGRATE</text><text x="482" y="607" fill="#8b9cb0" font-family="ui-monospace, SFMono-Regular, Menlo, Consolas, monospace" font-size="9.5" text-anchor="middle">the menu</text><rect x="831" y="523" width="71" height="34" rx="6" fill="#2c1618" stroke="#f87171" stroke-width="1.7"/><text x="866" y="544" fill="#ffd4d4" font-family="ui-monospace, SFMono-Regular, Menlo, Consolas, monospace" font-size="13" font-weight="700" text-anchor="middle">MERGE</text><rect x="822" y="583" width="87" height="34" rx="6" fill="#2c1618" stroke="#f87171" stroke-width="1.7"/><text x="866" y="604" fill="#ffd4d4" font-family="ui-monospace, SFMono-Regular, Menlo, Consolas, monospace" font-size="13" font-weight="700" text-anchor="middle">PUBLISH</text><rect x="801" y="637" width="129" height="46" rx="6" fill="#2c1618" stroke="#f87171" stroke-width="1.7"/><text x="866" y="658" fill="#ffd4d4" font-family="ui-monospace, SFMono-Regular, Menlo, Consolas, monospace" font-size="13" font-weight="700" text-anchor="middle">DISCARD</text><text x="866" y="675" fill="#8b9cb0" font-family="ui-monospace, SFMono-Regular, Menlo, Consolas, monospace" font-size="9.5" text-anchor="middle">explicit ask only</text><rect x="1089" y="583" width="63" height="34" rx="6" fill="#12291a" stroke="#4ade80" stroke-width="1.7"/><text x="1120" y="604" fill="#c8f5d6" font-family="ui-monospace, SFMono-Regular, Menlo, Consolas, monospace" font-size="13" font-weight="700" text-anchor="middle">DONE</text><text x="46" y="728" fill="#e6edf3" font-family="ui-monospace, SFMono-Regular, Menlo, Consolas, monospace" font-size="10.5" font-weight="700">Cycles are annotated, not drawn:</text><text x="296" y="728" fill="#8b9cb0" font-family="ui-monospace, SFMono-Regular, Menlo, Consolas, monospace" font-size="10">9 bounded · 4 deliberately unbounded, each one a human revising their own decision. The task loop is opened out overleaf.</text><text x="30" y="770" fill="#5b6b7d" font-family="ui-monospace, SFMono-Regular, Menlo, Consolas, monospace" font-size="9.5">21 nodes · 96 guarded edges · 9 bounded cycles · 19 declared human stops   ·   teal = ordinary · amber = the task loop · red = irreversible · dashed = not a node</text></svg>